<svg width="192.857" height="53.571" viewBox="0 0 192.857 53.571" xmlns="http://www.w3.org/2000/svg"><g id="svgGroup" stroke-linecap="round" fill-rule="evenodd" font-size="9pt" stroke="#000" stroke-width="0.25mm" fill="#000" style="stroke:#000;stroke-width:0.25mm;fill:#000"><path d="M 26.786 42.857 L 26.786 37.5 L 37.5 37.5 L 37.5 48.214 L 32.143 48.214 L 32.143 53.571 L 5.357 53.571 L 5.357 48.214 L 0 48.214 L 0 16.071 L 5.357 16.071 L 5.357 10.714 L 32.143 10.714 L 32.143 16.071 L 37.5 16.071 L 37.5 26.786 L 26.786 26.786 L 26.786 21.429 L 10.714 21.429 L 10.714 42.857 L 26.786 42.857 Z M 166.071 53.571 L 166.071 48.214 L 160.714 48.214 L 160.714 42.857 L 182.143 42.857 L 182.143 37.5 L 166.071 37.5 L 166.071 32.143 L 160.714 32.143 L 160.714 16.071 L 166.071 16.071 L 166.071 10.714 L 187.5 10.714 L 187.5 16.071 L 192.857 16.071 L 192.857 21.429 L 171.429 21.429 L 171.429 26.786 L 187.5 26.786 L 187.5 32.143 L 192.857 32.143 L 192.857 48.214 L 187.5 48.214 L 187.5 53.571 L 166.071 53.571 Z M 64.286 53.571 L 64.286 48.214 L 58.929 48.214 L 58.929 32.143 L 64.286 32.143 L 64.286 26.786 L 85.714 26.786 L 85.714 21.429 L 58.929 21.429 L 58.929 16.071 L 64.286 16.071 L 64.286 10.714 L 91.071 10.714 L 91.071 16.071 L 96.429 16.071 L 96.429 53.571 L 85.714 53.571 L 85.714 48.214 L 80.357 48.214 L 80.357 53.571 L 64.286 53.571 Z M 112.5 48.214 L 112.5 42.857 L 107.143 42.857 L 107.143 37.5 L 101.786 37.5 L 101.786 10.714 L 112.5 10.714 L 112.5 32.143 L 117.857 32.143 L 117.857 37.5 L 123.214 37.5 L 123.214 32.143 L 128.571 32.143 L 128.571 10.714 L 139.286 10.714 L 139.286 37.5 L 133.929 37.5 L 133.929 42.857 L 128.571 42.857 L 128.571 48.214 L 123.214 48.214 L 123.214 53.571 L 117.857 53.571 L 117.857 48.214 L 112.5 48.214 Z M 42.857 53.571 L 42.857 0 L 53.571 0 L 53.571 53.571 L 42.857 53.571 Z M 144.643 53.571 L 144.643 16.071 L 155.357 16.071 L 155.357 53.571 L 144.643 53.571 Z M 144.643 10.714 L 144.643 0 L 155.357 0 L 155.357 10.714 L 144.643 10.714 Z M 69.643 37.5 L 69.643 42.857 L 85.714 42.857 L 85.714 37.5 L 69.643 37.5 Z" vector-effect="non-scaling-stroke"/></g></svg>